<?xml version="1.0" encoding="UTF-8" standalone="no"?>
<svg
   xmlns:dc="http://purl.org/dc/elements/1.1/"
   xmlns:cc="http://creativecommons.org/ns#"
   xmlns:rdf="http://www.w3.org/1999/02/22-rdf-syntax-ns#"
   xmlns:svg="http://www.w3.org/2000/svg"
   xmlns="http://www.w3.org/2000/svg"
   xmlns:sodipodi="http://sodipodi.sourceforge.net/DTD/sodipodi-0.dtd"
   xmlns:inkscape="http://www.inkscape.org/namespaces/inkscape"
   width="44.319038mm"
   height="29.388899mm"
   viewBox="0 0 44.319038 29.388899"
   version="1.1"
   id="svg912"
   sodipodi:docname="ixenv.svg"
   inkscape:version="1.0.1 (3bc2e813f5, 2020-09-07)">
  <sodipodi:namedview
     pagecolor="#ffffff"
     bordercolor="#666666"
     borderopacity="1"
     objecttolerance="10"
     gridtolerance="10"
     guidetolerance="10"
     inkscape:pageopacity="0"
     inkscape:pageshadow="2"
     inkscape:window-width="1704"
     inkscape:window-height="1368"
     id="namedview13"
     showgrid="false"
     inkscape:zoom="6.3281683"
     inkscape:cx="83.752513"
     inkscape:cy="55.538077"
     inkscape:window-x="0"
     inkscape:window-y="0"
     inkscape:window-maximized="0"
     inkscape:current-layer="g5044"
     inkscape:document-rotation="0" />
  <defs
     id="defs906" />
  <metadata
     id="metadata909">
    <rdf:RDF>
      <cc:Work
         rdf:about="">
        <dc:format>image/svg+xml</dc:format>
        <dc:type
           rdf:resource="http://purl.org/dc/dcmitype/StillImage" />
        <dc:title></dc:title>
      </cc:Work>
    </rdf:RDF>
  </metadata>
  <g
     id="layer1"
     transform="translate(-84.429767,-122.88888)">
    <g
       id="g5768"
       transform="translate(-130.47775,50.39029)">
      <g
         transform="translate(2.1166667)"
         id="g5044"
         style="fill:#8094a8;fill-opacity:1">
        <path
           style="fill:#3e4c5a;fill-opacity:1;stroke-width:0.540839"
           id="path3872"
           d="m 257.06868,80.608444 c 0.006,-0.07572 0.0205,-0.150345 0.0205,-0.226612 0,-0.0022 -5.4e-4,-0.0043 -5.4e-4,-0.007 0.0104,-0.04489 0.0232,-0.08924 0.021,-0.137916 -0.2066,-4.33861 -9.939,-7.738325 -22.15762,-7.738325 -12.42686,0 -22.16087,3.46245 -22.16087,7.882729 0,0.07518 0.0143,0.14873 0.0204,0.223367 V 94.64 c 0,0.02649 0.0123,0.04867 0.0143,0.0741 -0.006,0.02596 -0.0205,0.04814 -0.0227,0.07572 -0.008,0.09247 -0.0123,0.18442 -0.0123,0.276368 0,2.866987 4.05681,5.412722 10.85193,6.809702 0.0368,0.008 0.073,0.0116 0.1091,0.0116 0.25148,0 0.47648,-0.17578 0.52949,-0.43214 0.005,-0.0243 -0.001,-0.047 0,-0.0709 0.005,-0.0259 0.0143,-0.0493 0.0143,-0.0762 V 89.217683 c 3.14336,-0.605742 6.77563,-0.95296 10.59016,-0.95296 3.86863,0 7.53552,0.356954 10.69563,0.972969 v 12.069358 c 0,0.0271 0.0123,0.0503 0.0143,0.0762 0.002,0.0238 -0.005,0.0465 5.5e-4,0.0709 0.0525,0.25636 0.27798,0.43214 0.52949,0.43214 0.0361,0 0.0724,-0.003 0.10921,-0.0116 6.79512,-1.39698 10.85195,-3.942715 10.85195,-6.809702 0,-0.128717 -0.0123,-0.257982 -0.0282,-0.386701 10e-4,-0.01349 0.008,-0.02541 0.008,-0.03894 V 80.608444 Z m -10.40412,7.738866 v -1.25096 c 4.49438,-0.974052 7.73777,-2.457032 9.32244,-4.20286 v 9.703733 c -1.60196,-1.800995 -4.93082,-3.291546 -9.32244,-4.249913 z m -23.44916,-0.0038 c -4.32239,0.937274 -7.66639,2.387804 -9.32299,4.139582 v -9.589617 c 1.58466,1.746369 4.82861,3.22935 9.32299,4.20286 z m 0,12.3295 c -5.69503,-1.271505 -9.34245,-3.442973 -9.34245,-5.607412 0,-0.05895 0.002,-0.11952 0.008,-0.179024 0.005,-0.04219 -0.008,-0.08113 -0.0123,-0.122238 0.0105,-0.04111 0.025,-0.08005 0.025,-0.124384 v -0.344024 c 0.0589,-0.04867 0.11038,-0.107088 0.14555,-0.180638 0.94052,-1.952429 4.40565,-3.623081 9.17748,-4.673932 v 11.231602 z m 11.67184,-13.490141 c -3.82048,0 -7.43275,0.338565 -10.59016,0.939978 v -1.378056 c 0,-0.0098 -0.005,-0.01738 -0.006,-0.02649 0.0277,-0.273123 -0.14655,-0.52894 -0.42133,-0.585187 -5.90866,-1.213642 -9.77188,-3.383491 -9.97792,-5.568479 v -0.346138 c 0,-0.0086 -0.005,-0.01574 -0.005,-0.02434 0.31261,-3.229889 8.69345,-6.613919 21.06405,-6.613919 11.73784,0 19.9759,3.099007 20.97375,6.174759 0.005,0.02757 -0.002,0.05408 0.006,0.08113 0.0325,0.116269 0.0509,0.233643 0.0622,0.350464 -5.3e-4,0.0115 -0.006,0.02054 -0.006,0.03191 v 0.3483 c -0.20876,2.18445 -4.07142,4.353214 -9.97794,5.566317 -0.2742,0.05626 -0.44888,0.312062 -0.42075,0.585187 -5.6e-4,0.0092 -0.006,0.01677 -0.006,0.02649 v 1.381301 c -3.15628,-0.602935 -6.79286,-0.943122 -10.69558,-0.943122 z m 11.77732,13.490241 V 89.463652 c 5.31049,1.181734 8.95846,3.121722 9.2808,5.313743 0.008,0.05517 0.0293,0.104393 0.0519,0.15198 0.005,0.04544 0.0105,0.09033 0.0105,0.13575 0,2.164977 -3.64851,4.336446 -9.343,5.607955 z" />
        <path
           d="m 244.0158,82.131558 c -0.28667,0 -0.54945,0.13139 -0.72862,0.334447 l -2.31723,-1.122787 c 0.0359,-0.131389 0.0597,-0.262779 0.0597,-0.406114 0,-0.310558 -0.0956,-0.597227 -0.26278,-0.836117 l 2.35307,-2.353073 c 0.19112,0.131389 0.41807,0.203057 0.65696,0.203057 0.65695,0 1.19445,-0.537504 1.19445,-1.194454 0,-0.656949 -0.5375,-1.194453 -1.19445,-1.194453 -0.65696,0 -1.19446,0.537504 -1.19446,1.194453 0,0.238892 0.0717,0.465838 0.20305,0.65695 l -2.35306,2.353073 c -0.23889,-0.167223 -0.52557,-0.262779 -0.83612,-0.262779 -0.27472,0 -0.52556,0.07167 -0.74057,0.203056 l -2.05445,-2.40085 c 0.1075,-0.155281 0.16722,-0.346392 0.16722,-0.54945 0,-0.525559 -0.43,-0.955562 -0.95555,-0.955562 -0.52557,0 -0.95557,0.430003 -0.95557,0.955562 0,0.52556 0.43,0.955563 0.95557,0.955563 0.15527,0 0.2986,-0.03584 0.41804,-0.09556 l 2.06641,2.400851 c -0.21499,0.250835 -0.33445,0.573338 -0.33445,0.919729 0,0.310559 0.0956,0.597228 0.26279,0.836118 l -2.35308,2.353073 c -0.19111,-0.131389 -0.41806,-0.203058 -0.65695,-0.203058 -0.65695,0 -1.19445,0.537505 -1.19445,1.194455 0,0.656949 0.5375,1.194453 1.19445,1.194453 0.65695,0 1.19446,-0.537504 1.19446,-1.194453 0,-0.238891 -0.0717,-0.465837 -0.20307,-0.65695 l 2.35308,-2.353072 c 0.17917,0.119444 0.37028,0.203056 0.59723,0.250834 v 1.600568 c -0.54945,0.107501 -0.95557,0.597226 -0.95557,1.170564 0,0.65695 0.53751,1.194454 1.19446,1.194454 0.65695,0 1.19445,-0.537504 1.19445,-1.194454 0,-0.573338 -0.40611,-1.063063 -0.95555,-1.170564 v -1.612512 c 0.38222,-0.05973 0.71667,-0.274725 0.93166,-0.585282 l 2.31724,1.122786 c -0.012,0.05973 -0.0239,0.119445 -0.0239,0.191112 0,0.52556 0.42999,0.955563 0.95556,0.955563 0.52555,0 0.95555,-0.430003 0.95555,-0.955563 0,-0.513615 -0.43,-0.943618 -0.95555,-0.943618 z m -0.23889,-5.852821 c 0.26278,0 0.47778,0.215 0.47778,0.47778 0,0.26278 -0.215,0.477781 -0.47778,0.477781 -0.26278,0 -0.47779,-0.215001 -0.47779,-0.477781 0,-0.26278 0.21501,-0.47778 0.47779,-0.47778 z m -7.76394,0.716672 c -0.1314,0 -0.2389,-0.107501 -0.2389,-0.238892 0,-0.131389 0.1075,-0.23889 0.2389,-0.23889 0.13138,0 0.23888,0.107501 0.23888,0.23889 0,0.131391 -0.1075,0.238892 -0.23888,0.238892 z m -0.59724,8.600064 c -0.26277,0 -0.47778,-0.215001 -0.47778,-0.477781 0,-0.26278 0.21501,-0.477782 0.47778,-0.477782 0.26279,0 0.47779,0.215002 0.47779,0.477782 0,0.26278 -0.215,0.477781 -0.47779,0.477781 z m 4.65837,-0.477781 c 0,0.26278 -0.215,0.477781 -0.47778,0.477781 -0.26277,0 -0.47779,-0.215001 -0.47779,-0.477781 0,-0.26278 0.21502,-0.477782 0.47779,-0.477782 0.26278,0 0.47778,0.215002 0.47778,0.477782 z m -0.47778,-3.463916 c -0.39417,0 -0.71667,-0.322502 -0.71667,-0.716672 0,-0.394169 0.3225,-0.716671 0.71667,-0.716671 0.39417,0 0.71667,0.322502 0.71667,0.716671 0,0.39417 -0.3225,0.716672 -0.71667,0.716672 z m 4.41948,1.672235 c -0.13139,0 -0.23889,-0.1075 -0.23889,-0.23889 0,-0.13139 0.1075,-0.238891 0.23889,-0.238891 0.13139,0 0.23889,0.107501 0.23889,0.238891 0,0.13139 -0.1075,0.23889 -0.23889,0.23889 z"
           id="path4455"
           style="fill:#8094a8;fill-opacity:1;stroke-width:0.119445" />
      </g>
      <g
         id="g5102"
         transform="matrix(0.18202867,0,0,0.18202867,224.73151,80.123347)">
        <path
           id="path5098"
           d="m 40.736,21.672 c 5.975,0 10.836,-4.861 10.836,-10.836 C 51.572,4.861 46.711,0 40.736,0 34.761,0 29.9,4.861 29.9,10.836 c 0,5.975 4.861,10.836 10.836,10.836 z"
           style="fill:#ffffff" />
        <path
           id="path5100"
           d="M 73.798,10.78 72.519,8.93 C 71.964,8.128 71.051,7.649 70.076,7.649 c -0.622,0 -1.218,0.192 -1.726,0.555 L 45.97,24.214 H 33.203 32.32 30.953 c -1.433,0 -3.143,0.878 -3.979,2.042 L 18.4,38.201 c -0.862,1.202 -0.969,3.153 -0.243,4.441 L 25.1,54.967 c 0.711,1.263 2.404,2.252 3.853,2.252 h 0.367 v 0.12 0.503 29.166 c 0,2.757 2.243,5 5,5 h 0.352 c 2.757,0 5,-2.243 5,-5 V 60.842 h 2.127 v 26.166 c 0,2.757 2.243,5 5,5 h 0.351 c 2.757,0 5,-2.243 5,-5 V 57.842 57.339 29.936 L 73.068,14.971 c 1.339,-0.957 1.666,-2.837 0.73,-4.191 z M 29.32,47.981 25.92,42.442 c -0.369,-0.601 -0.337,-1.673 0.065,-2.251 l 3.335,-4.786 z"
           style="fill:#ffffff" />
      </g>
    </g>
  </g>
</svg>
